# xmcd
#
# Track frame offsets:
#	150
#	31907
#	49362
#	83180
#	98167
#	121269
#	145766
#	171951
#	199579
#	225761
#	241041
#	263428
#	289457
#	312761
#	337483
#
# Disc length: 4764 seconds
#
# Revision: 4
# Processed by: cddbd v1.5.2PL0 Copyright (c) Steve Scherf et al.
# Submitted via: EZCDAudioConverter 6.0.0.1
#
DISCID=cb129a0f
DTITLE=Various Artist - Akella Presents - Black Pure Blues - vol.8   CD2
DYEAR=2010
DGENRE=Blues
TTITLE0=MELVIN TAYLOR - Dirty Pool
TTITLE1=BILLY BRANCH - Highway Blues
TTITLE2=RONDO'S BLUES DELUXE - Bflat Minor Blues
TTITLE3=LONNIE BROOCKS - Boomerang
TTITLE4=ERVIN CHARLES - Born in Louisiana
TTITLE5=SON SILS - Give the Devil His Due
TTITLE6=JAMES COTTON - Feel Like Goin' Home
TTITLE7=MIGHTY MO RODGERS - Welcome to the Faultline
TTITLE8=MAGIC SLIM - Crazy Woman
TTITLE9=BILL SIMS - When Do I Get to Be Called a Man
TTITLE10=PETE MAYES - You're Still My Baby
TTITLE11=BILL PERRY - Doun
TTITLE12=ALBERT COLLINS - Master Charge
TTITLE13=ROBERT CRAY - Will You Think of Me
TTITLE14=LEON THOMAS - Disillusion Blues
EXTD=
EXTT0=
EXTT1=
EXTT2=
EXTT3=
EXTT4=
EXTT5=
EXTT6=
EXTT7=
EXTT8=
EXTT9=
EXTT10=
EXTT11=
EXTT12=
EXTT13=
EXTT14=
PLAYORDER=
